<mxfile host="Electron" modified="2024-12-25T23:16:19.337Z" agent="Mozilla/5.0 (Windows NT 10.0; Win64; x64) AppleWebKit/537.36 (KHTML, like Gecko) draw.io/24.1.0 Chrome/120.0.6099.109 Electron/28.1.0 Safari/537.36" etag="T0Sw30GKPLJl5KtTP7Bi" version="24.1.0" type="device">
  <diagram name="Página-1" id="HnM5bIwWVijFqjH4xQIT">
    <mxGraphModel dx="3407" dy="1258" grid="1" gridSize="10" guides="1" tooltips="1" connect="1" arrows="1" fold="1" page="1" pageScale="1" pageWidth="827" pageHeight="1169" math="0" shadow="0">
      <root>
        <mxCell id="0" />
        <mxCell id="1" parent="0" />
        <mxCell id="joN3pdNG3yfQY1ER5gcC-1" value="&amp;lt;&amp;lt;component&amp;gt;&amp;gt;&lt;div&gt;&amp;lt;&amp;lt;C4 System&amp;gt;&amp;gt;&lt;br&gt;&lt;b&gt;Hospital de Paranhos&lt;/b&gt;&lt;/div&gt;&lt;div&gt;&lt;b&gt;&lt;br&gt;&lt;/b&gt;&lt;/div&gt;&lt;div&gt;&lt;b&gt;&lt;br&gt;&lt;/b&gt;&lt;/div&gt;&lt;div&gt;&lt;b&gt;&lt;br&gt;&lt;/b&gt;&lt;/div&gt;&lt;div&gt;&lt;b&gt;&lt;br&gt;&lt;/b&gt;&lt;/div&gt;&lt;div&gt;&lt;b&gt;&lt;br&gt;&lt;/b&gt;&lt;/div&gt;&lt;div&gt;&lt;b&gt;&lt;br&gt;&lt;/b&gt;&lt;/div&gt;&lt;div&gt;&lt;b&gt;&lt;br&gt;&lt;/b&gt;&lt;/div&gt;&lt;div&gt;&lt;b&gt;&lt;br&gt;&lt;/b&gt;&lt;/div&gt;&lt;div&gt;&lt;b&gt;&lt;br&gt;&lt;/b&gt;&lt;/div&gt;&lt;div&gt;&lt;b&gt;&lt;br&gt;&lt;/b&gt;&lt;/div&gt;&lt;div&gt;&lt;b&gt;&lt;br&gt;&lt;/b&gt;&lt;/div&gt;&lt;div&gt;&lt;b&gt;&lt;br&gt;&lt;/b&gt;&lt;/div&gt;&lt;div&gt;&lt;b&gt;&lt;br&gt;&lt;/b&gt;&lt;/div&gt;&lt;div&gt;&lt;b&gt;&lt;br&gt;&lt;/b&gt;&lt;/div&gt;&lt;div&gt;&lt;b&gt;&lt;br&gt;&lt;/b&gt;&lt;/div&gt;&lt;div&gt;&lt;b&gt;&lt;br&gt;&lt;/b&gt;&lt;/div&gt;&lt;div&gt;&lt;b&gt;&lt;br&gt;&lt;/b&gt;&lt;/div&gt;&lt;div&gt;&lt;b&gt;&lt;br&gt;&lt;/b&gt;&lt;/div&gt;&lt;div&gt;&lt;b&gt;&lt;br&gt;&lt;/b&gt;&lt;/div&gt;&lt;div&gt;&lt;b&gt;&lt;br&gt;&lt;/b&gt;&lt;/div&gt;&lt;div&gt;&lt;b&gt;&lt;br&gt;&lt;/b&gt;&lt;/div&gt;&lt;div&gt;&lt;b&gt;&lt;br&gt;&lt;/b&gt;&lt;/div&gt;&lt;div&gt;&lt;b&gt;&lt;br&gt;&lt;/b&gt;&lt;/div&gt;&lt;div&gt;&lt;b&gt;&lt;br&gt;&lt;/b&gt;&lt;/div&gt;&lt;div&gt;&lt;b&gt;&lt;br&gt;&lt;/b&gt;&lt;/div&gt;&lt;div&gt;&lt;b&gt;&lt;br&gt;&lt;/b&gt;&lt;/div&gt;&lt;div&gt;&lt;b&gt;&lt;br&gt;&lt;/b&gt;&lt;/div&gt;&lt;div&gt;&lt;b&gt;&lt;br&gt;&lt;/b&gt;&lt;/div&gt;&lt;div&gt;&lt;b&gt;&lt;br&gt;&lt;/b&gt;&lt;/div&gt;&lt;div&gt;&lt;b&gt;&lt;br&gt;&lt;/b&gt;&lt;/div&gt;&lt;div&gt;&lt;br&gt;&lt;/div&gt;&lt;div&gt;&lt;br&gt;&lt;/div&gt;&lt;div&gt;&lt;br&gt;&lt;/div&gt;&lt;div&gt;&lt;br&gt;&lt;/div&gt;&lt;div&gt;&lt;br&gt;&lt;/div&gt;&lt;div&gt;&lt;br&gt;&lt;/div&gt;&lt;div&gt;&lt;br&gt;&lt;/div&gt;&lt;div&gt;&lt;br&gt;&lt;/div&gt;&lt;div&gt;&lt;br&gt;&lt;/div&gt;" style="html=1;dropTarget=0;whiteSpace=wrap;" vertex="1" parent="1">
          <mxGeometry x="-516" y="210" width="930" height="670" as="geometry" />
        </mxCell>
        <mxCell id="joN3pdNG3yfQY1ER5gcC-2" value="" style="shape=module;jettyWidth=8;jettyHeight=4;" vertex="1" parent="joN3pdNG3yfQY1ER5gcC-1">
          <mxGeometry x="1" width="20" height="20" relative="1" as="geometry">
            <mxPoint x="-27" y="7" as="offset" />
          </mxGeometry>
        </mxCell>
        <mxCell id="joN3pdNG3yfQY1ER5gcC-3" value="" style="verticalLabelPosition=bottom;verticalAlign=top;html=1;shape=mxgraph.basic.rect;fillColor2=none;strokeWidth=1;size=9.4;indent=5;" vertex="1" parent="1">
          <mxGeometry x="-96" y="200" width="20" height="20" as="geometry" />
        </mxCell>
        <mxCell id="joN3pdNG3yfQY1ER5gcC-4" value="" style="endArrow=none;html=1;rounded=0;exitX=0.488;exitY=0.015;exitDx=0;exitDy=0;exitPerimeter=0;entryX=0.488;entryY=1.026;entryDx=0;entryDy=0;entryPerimeter=0;" edge="1" parent="1" source="joN3pdNG3yfQY1ER5gcC-23" target="joN3pdNG3yfQY1ER5gcC-3">
          <mxGeometry width="50" height="50" relative="1" as="geometry">
            <mxPoint x="-26" y="350" as="sourcePoint" />
            <mxPoint x="24" y="300" as="targetPoint" />
          </mxGeometry>
        </mxCell>
        <mxCell id="joN3pdNG3yfQY1ER5gcC-5" value="" style="ellipse;whiteSpace=wrap;html=1;align=center;aspect=fixed;fillColor=none;strokeColor=none;resizable=0;perimeter=centerPerimeter;rotatable=0;allowArrows=0;points=[];outlineConnect=1;" vertex="1" parent="1">
          <mxGeometry x="-66" y="370" width="10" height="10" as="geometry" />
        </mxCell>
        <mxCell id="joN3pdNG3yfQY1ER5gcC-6" value="" style="ellipse;whiteSpace=wrap;html=1;aspect=fixed;" vertex="1" parent="1">
          <mxGeometry x="-101" y="150" width="30" height="30" as="geometry" />
        </mxCell>
        <mxCell id="joN3pdNG3yfQY1ER5gcC-7" value="" style="endArrow=none;html=1;rounded=0;entryX=0.5;entryY=1;entryDx=0;entryDy=0;exitX=0.55;exitY=0.011;exitDx=0;exitDy=0;exitPerimeter=0;" edge="1" parent="1" source="joN3pdNG3yfQY1ER5gcC-3" target="joN3pdNG3yfQY1ER5gcC-6">
          <mxGeometry width="50" height="50" relative="1" as="geometry">
            <mxPoint x="-116" y="260" as="sourcePoint" />
            <mxPoint x="-66" y="210" as="targetPoint" />
          </mxGeometry>
        </mxCell>
        <mxCell id="joN3pdNG3yfQY1ER5gcC-8" value="UI" style="edgeLabel;html=1;align=center;verticalAlign=middle;resizable=0;points=[];" vertex="1" connectable="0" parent="joN3pdNG3yfQY1ER5gcC-7">
          <mxGeometry x="0.7303" y="1" relative="1" as="geometry">
            <mxPoint x="-9" y="4" as="offset" />
          </mxGeometry>
        </mxCell>
        <mxCell id="joN3pdNG3yfQY1ER5gcC-9" value="«component»&lt;div&gt;«container (C4)»&lt;br&gt;&lt;b&gt;Planning/Optimization&lt;/b&gt;&lt;/div&gt;" style="html=1;dropTarget=0;whiteSpace=wrap;" vertex="1" parent="1">
          <mxGeometry x="164" y="320" width="180" height="90" as="geometry" />
        </mxCell>
        <mxCell id="joN3pdNG3yfQY1ER5gcC-10" value="" style="shape=module;jettyWidth=8;jettyHeight=4;" vertex="1" parent="joN3pdNG3yfQY1ER5gcC-9">
          <mxGeometry x="1" width="20" height="20" relative="1" as="geometry">
            <mxPoint x="-27" y="7" as="offset" />
          </mxGeometry>
        </mxCell>
        <mxCell id="joN3pdNG3yfQY1ER5gcC-11" value="«component»&lt;div&gt;«container (C4)»&lt;br&gt;&lt;b&gt;Frontend&lt;/b&gt;&lt;/div&gt;" style="html=1;dropTarget=0;whiteSpace=wrap;" vertex="1" parent="1">
          <mxGeometry x="-156" y="300" width="180" height="90" as="geometry" />
        </mxCell>
        <mxCell id="joN3pdNG3yfQY1ER5gcC-12" value="" style="shape=module;jettyWidth=8;jettyHeight=4;" vertex="1" parent="joN3pdNG3yfQY1ER5gcC-11">
          <mxGeometry x="1" width="20" height="20" relative="1" as="geometry">
            <mxPoint x="-27" y="7" as="offset" />
          </mxGeometry>
        </mxCell>
        <mxCell id="joN3pdNG3yfQY1ER5gcC-13" value="" style="rounded=0;orthogonalLoop=1;jettySize=auto;html=1;endArrow=halfCircle;endFill=0;endSize=6;strokeWidth=1;sketch=0;exitX=1;exitY=0.5;exitDx=0;exitDy=0;" edge="1" parent="1" source="joN3pdNG3yfQY1ER5gcC-17">
          <mxGeometry relative="1" as="geometry">
            <mxPoint x="24" y="364.83" as="sourcePoint" />
            <mxPoint x="94" y="340" as="targetPoint" />
          </mxGeometry>
        </mxCell>
        <mxCell id="joN3pdNG3yfQY1ER5gcC-14" value="" style="rounded=0;orthogonalLoop=1;jettySize=auto;html=1;endArrow=oval;endFill=0;sketch=0;sourcePerimeterSpacing=0;targetPerimeterSpacing=0;endSize=10;exitX=0;exitY=0.5;exitDx=0;exitDy=0;" edge="1" parent="1" source="joN3pdNG3yfQY1ER5gcC-18">
          <mxGeometry relative="1" as="geometry">
            <mxPoint x="164" y="364.83" as="sourcePoint" />
            <mxPoint x="94" y="340" as="targetPoint" />
          </mxGeometry>
        </mxCell>
        <mxCell id="joN3pdNG3yfQY1ER5gcC-15" value="&lt;b&gt;Planning API&lt;/b&gt;" style="edgeLabel;html=1;align=center;verticalAlign=middle;resizable=0;points=[];" vertex="1" connectable="0" parent="joN3pdNG3yfQY1ER5gcC-14">
          <mxGeometry x="0.7483" relative="1" as="geometry">
            <mxPoint y="15" as="offset" />
          </mxGeometry>
        </mxCell>
        <mxCell id="joN3pdNG3yfQY1ER5gcC-16" value="" style="ellipse;whiteSpace=wrap;html=1;align=center;aspect=fixed;fillColor=none;strokeColor=none;resizable=0;perimeter=centerPerimeter;rotatable=0;allowArrows=0;points=[];outlineConnect=1;" vertex="1" parent="1">
          <mxGeometry x="109" y="400" width="10" height="10" as="geometry" />
        </mxCell>
        <mxCell id="joN3pdNG3yfQY1ER5gcC-17" value="" style="rounded=0;whiteSpace=wrap;html=1;" vertex="1" parent="1">
          <mxGeometry x="14" y="330" width="20" height="20" as="geometry" />
        </mxCell>
        <mxCell id="joN3pdNG3yfQY1ER5gcC-18" value="" style="rounded=0;whiteSpace=wrap;html=1;" vertex="1" parent="1">
          <mxGeometry x="154" y="330" width="20" height="20" as="geometry" />
        </mxCell>
        <mxCell id="joN3pdNG3yfQY1ER5gcC-19" value="" style="rounded=0;orthogonalLoop=1;jettySize=auto;html=1;endArrow=halfCircle;endFill=0;endSize=6;strokeWidth=1;sketch=0;exitX=1;exitY=0.5;exitDx=0;exitDy=0;" edge="1" parent="1" source="joN3pdNG3yfQY1ER5gcC-34">
          <mxGeometry relative="1" as="geometry">
            <mxPoint x="54" y="560" as="sourcePoint" />
            <mxPoint x="84" y="510" as="targetPoint" />
            <Array as="points">
              <mxPoint x="84" y="715" />
              <mxPoint x="84" y="530" />
            </Array>
          </mxGeometry>
        </mxCell>
        <mxCell id="joN3pdNG3yfQY1ER5gcC-20" value="" style="rounded=0;orthogonalLoop=1;jettySize=auto;html=1;endArrow=oval;endFill=0;sketch=0;sourcePerimeterSpacing=0;targetPerimeterSpacing=0;endSize=10;exitX=1;exitY=0.5;exitDx=0;exitDy=0;" edge="1" parent="1" source="joN3pdNG3yfQY1ER5gcC-37">
          <mxGeometry relative="1" as="geometry">
            <mxPoint x="164" y="504.8299999999999" as="sourcePoint" />
            <mxPoint x="84" y="505" as="targetPoint" />
            <Array as="points">
              <mxPoint x="44" y="480" />
              <mxPoint x="44" y="505" />
            </Array>
          </mxGeometry>
        </mxCell>
        <mxCell id="joN3pdNG3yfQY1ER5gcC-21" value="&lt;b&gt;Backend API&lt;/b&gt;" style="edgeLabel;html=1;align=center;verticalAlign=middle;resizable=0;points=[];" vertex="1" connectable="0" parent="joN3pdNG3yfQY1ER5gcC-20">
          <mxGeometry x="0.7483" relative="1" as="geometry">
            <mxPoint x="46" y="-25" as="offset" />
          </mxGeometry>
        </mxCell>
        <mxCell id="joN3pdNG3yfQY1ER5gcC-22" value="" style="ellipse;whiteSpace=wrap;html=1;align=center;aspect=fixed;fillColor=none;strokeColor=none;resizable=0;perimeter=centerPerimeter;rotatable=0;allowArrows=0;points=[];outlineConnect=1;" vertex="1" parent="1">
          <mxGeometry x="134" y="510" width="10" height="10" as="geometry" />
        </mxCell>
        <mxCell id="joN3pdNG3yfQY1ER5gcC-23" value="" style="verticalLabelPosition=bottom;verticalAlign=top;html=1;shape=mxgraph.basic.rect;fillColor2=none;strokeWidth=1;size=1.2;indent=0;" vertex="1" parent="1">
          <mxGeometry x="-96" y="290" width="20" height="20" as="geometry" />
        </mxCell>
        <mxCell id="joN3pdNG3yfQY1ER5gcC-24" value="«component»&lt;br&gt;«container (C4)»&lt;div&gt;&lt;b&gt;3D Visualization&lt;/b&gt;&lt;/div&gt;" style="rounded=0;whiteSpace=wrap;html=1;" vertex="1" parent="1">
          <mxGeometry x="-156" y="695" width="180" height="105" as="geometry" />
        </mxCell>
        <mxCell id="joN3pdNG3yfQY1ER5gcC-25" value="«component»&lt;br&gt;«container (C4)»&lt;div&gt;&lt;b&gt;GDPR&lt;/b&gt;&lt;/div&gt;" style="rounded=0;whiteSpace=wrap;html=1;" vertex="1" parent="1">
          <mxGeometry x="164" y="445" width="180" height="105" as="geometry" />
        </mxCell>
        <mxCell id="joN3pdNG3yfQY1ER5gcC-26" value="" style="rounded=0;whiteSpace=wrap;html=1;" vertex="1" parent="1">
          <mxGeometry x="154" y="495" width="20" height="20" as="geometry" />
        </mxCell>
        <mxCell id="joN3pdNG3yfQY1ER5gcC-27" value="" style="rounded=0;orthogonalLoop=1;jettySize=auto;html=1;endArrow=halfCircle;endFill=0;endSize=6;strokeWidth=1;sketch=0;fontSize=12;curved=1;exitX=0;exitY=0.5;exitDx=0;exitDy=0;" edge="1" parent="1" source="joN3pdNG3yfQY1ER5gcC-26">
          <mxGeometry relative="1" as="geometry">
            <mxPoint x="164" y="375" as="sourcePoint" />
            <mxPoint x="94" y="505" as="targetPoint" />
          </mxGeometry>
        </mxCell>
        <mxCell id="joN3pdNG3yfQY1ER5gcC-28" value="" style="rounded=0;whiteSpace=wrap;html=1;" vertex="1" parent="1">
          <mxGeometry x="-136" y="685" width="20" height="20" as="geometry" />
        </mxCell>
        <mxCell id="joN3pdNG3yfQY1ER5gcC-29" value="" style="rounded=0;whiteSpace=wrap;html=1;" vertex="1" parent="1">
          <mxGeometry x="-136" y="380" width="20" height="20" as="geometry" />
        </mxCell>
        <mxCell id="joN3pdNG3yfQY1ER5gcC-30" value="" style="rounded=0;orthogonalLoop=1;jettySize=auto;html=1;endArrow=halfCircle;endFill=0;endSize=6;strokeWidth=1;sketch=0;exitX=0.5;exitY=1;exitDx=0;exitDy=0;" edge="1" parent="1" source="joN3pdNG3yfQY1ER5gcC-29">
          <mxGeometry relative="1" as="geometry">
            <mxPoint x="-206" y="480" as="sourcePoint" />
            <mxPoint x="-176" y="500" as="targetPoint" />
            <Array as="points">
              <mxPoint x="-176" y="440" />
            </Array>
          </mxGeometry>
        </mxCell>
        <mxCell id="joN3pdNG3yfQY1ER5gcC-31" value="" style="rounded=0;orthogonalLoop=1;jettySize=auto;html=1;endArrow=oval;endFill=0;sketch=0;sourcePerimeterSpacing=0;targetPerimeterSpacing=0;endSize=10;exitX=0.5;exitY=0;exitDx=0;exitDy=0;" edge="1" parent="1" source="joN3pdNG3yfQY1ER5gcC-28">
          <mxGeometry relative="1" as="geometry">
            <mxPoint x="-66" y="480" as="sourcePoint" />
            <mxPoint x="-176" y="500" as="targetPoint" />
            <Array as="points">
              <mxPoint x="-176" y="640" />
            </Array>
          </mxGeometry>
        </mxCell>
        <mxCell id="joN3pdNG3yfQY1ER5gcC-32" value="&lt;b&gt;3D Visualization API&lt;/b&gt;" style="edgeLabel;html=1;align=center;verticalAlign=middle;resizable=0;points=[];" vertex="1" connectable="0" parent="joN3pdNG3yfQY1ER5gcC-31">
          <mxGeometry x="0.7483" relative="1" as="geometry">
            <mxPoint x="-60" y="-35" as="offset" />
          </mxGeometry>
        </mxCell>
        <mxCell id="joN3pdNG3yfQY1ER5gcC-33" value="«component»&lt;br&gt;«container (C4)»&lt;div&gt;&lt;b&gt;BCP&lt;/b&gt;&lt;/div&gt;" style="rounded=0;whiteSpace=wrap;html=1;" vertex="1" parent="1">
          <mxGeometry x="164" y="590" width="180" height="105" as="geometry" />
        </mxCell>
        <mxCell id="joN3pdNG3yfQY1ER5gcC-34" value="" style="rounded=0;whiteSpace=wrap;html=1;" vertex="1" parent="1">
          <mxGeometry x="14" y="705" width="20" height="20" as="geometry" />
        </mxCell>
        <mxCell id="joN3pdNG3yfQY1ER5gcC-35" value="«component»&lt;div&gt;«container (C4)»&lt;br&gt;&lt;b&gt;Backend&lt;/b&gt;&lt;/div&gt;" style="html=1;dropTarget=0;whiteSpace=wrap;" vertex="1" parent="1">
          <mxGeometry x="-151" y="430" width="170" height="80" as="geometry" />
        </mxCell>
        <mxCell id="joN3pdNG3yfQY1ER5gcC-36" value="" style="shape=module;jettyWidth=8;jettyHeight=4;" vertex="1" parent="joN3pdNG3yfQY1ER5gcC-35">
          <mxGeometry x="1" width="20" height="20" relative="1" as="geometry">
            <mxPoint x="-27" y="7" as="offset" />
          </mxGeometry>
        </mxCell>
        <mxCell id="joN3pdNG3yfQY1ER5gcC-37" value="" style="rounded=0;whiteSpace=wrap;html=1;" vertex="1" parent="1">
          <mxGeometry x="4" y="470" width="20" height="20" as="geometry" />
        </mxCell>
        <mxCell id="joN3pdNG3yfQY1ER5gcC-38" value="" style="rounded=0;whiteSpace=wrap;html=1;" vertex="1" parent="1">
          <mxGeometry x="14" y="360" width="20" height="20" as="geometry" />
        </mxCell>
        <mxCell id="joN3pdNG3yfQY1ER5gcC-39" value="" style="rounded=0;orthogonalLoop=1;jettySize=auto;html=1;endArrow=halfCircle;endFill=0;endSize=6;strokeWidth=1;sketch=0;exitX=1;exitY=0.5;exitDx=0;exitDy=0;" edge="1" parent="1" source="joN3pdNG3yfQY1ER5gcC-38">
          <mxGeometry relative="1" as="geometry">
            <mxPoint x="-116" y="410" as="sourcePoint" />
            <mxPoint x="84" y="500" as="targetPoint" />
            <Array as="points">
              <mxPoint x="84" y="370" />
              <mxPoint x="84" y="410" />
            </Array>
          </mxGeometry>
        </mxCell>
        <mxCell id="joN3pdNG3yfQY1ER5gcC-40" value="«component»&lt;div&gt;«container (C4)»&lt;br&gt;&lt;b&gt;Database&lt;/b&gt;&lt;/div&gt;" style="html=1;dropTarget=0;whiteSpace=wrap;" vertex="1" parent="1">
          <mxGeometry x="-106" y="590" width="130" height="65" as="geometry" />
        </mxCell>
        <mxCell id="joN3pdNG3yfQY1ER5gcC-41" value="" style="shape=module;jettyWidth=8;jettyHeight=4;" vertex="1" parent="joN3pdNG3yfQY1ER5gcC-40">
          <mxGeometry x="1" width="20" height="20" relative="1" as="geometry">
            <mxPoint x="-27" y="7" as="offset" />
          </mxGeometry>
        </mxCell>
        <mxCell id="joN3pdNG3yfQY1ER5gcC-42" value="" style="rounded=0;whiteSpace=wrap;html=1;" vertex="1" parent="1">
          <mxGeometry x="-42" y="500" width="20" height="20" as="geometry" />
        </mxCell>
        <mxCell id="joN3pdNG3yfQY1ER5gcC-43" value="" style="rounded=0;whiteSpace=wrap;html=1;" vertex="1" parent="1">
          <mxGeometry x="-42" y="580" width="20" height="20" as="geometry" />
        </mxCell>
        <mxCell id="joN3pdNG3yfQY1ER5gcC-44" value="" style="rounded=0;orthogonalLoop=1;jettySize=auto;html=1;endArrow=halfCircle;endFill=0;endSize=6;strokeWidth=1;sketch=0;exitX=0.5;exitY=1;exitDx=0;exitDy=0;" edge="1" parent="1" source="joN3pdNG3yfQY1ER5gcC-42">
          <mxGeometry relative="1" as="geometry">
            <mxPoint x="44" y="350" as="sourcePoint" />
            <mxPoint x="-32" y="550" as="targetPoint" />
          </mxGeometry>
        </mxCell>
        <mxCell id="joN3pdNG3yfQY1ER5gcC-45" value="" style="rounded=0;orthogonalLoop=1;jettySize=auto;html=1;endArrow=oval;endFill=0;sketch=0;sourcePerimeterSpacing=0;targetPerimeterSpacing=0;endSize=10;exitX=0.5;exitY=0;exitDx=0;exitDy=0;" edge="1" parent="1" source="joN3pdNG3yfQY1ER5gcC-43">
          <mxGeometry relative="1" as="geometry">
            <mxPoint x="164" y="350" as="sourcePoint" />
            <mxPoint x="-32" y="550" as="targetPoint" />
          </mxGeometry>
        </mxCell>
        <mxCell id="joN3pdNG3yfQY1ER5gcC-46" value="&lt;b&gt;Database API&lt;/b&gt;" style="edgeLabel;html=1;align=center;verticalAlign=middle;resizable=0;points=[];" vertex="1" connectable="0" parent="joN3pdNG3yfQY1ER5gcC-45">
          <mxGeometry x="0.7483" relative="1" as="geometry">
            <mxPoint x="-54" y="-4" as="offset" />
          </mxGeometry>
        </mxCell>
        <mxCell id="joN3pdNG3yfQY1ER5gcC-47" value="«component»&lt;div&gt;«container (C4)»&lt;br&gt;&lt;b&gt;ExpressBackend&lt;/b&gt;&lt;/div&gt;" style="html=1;dropTarget=0;whiteSpace=wrap;" vertex="1" parent="1">
          <mxGeometry x="-476" y="430" width="170" height="80" as="geometry" />
        </mxCell>
        <mxCell id="joN3pdNG3yfQY1ER5gcC-48" value="" style="shape=module;jettyWidth=8;jettyHeight=4;" vertex="1" parent="joN3pdNG3yfQY1ER5gcC-47">
          <mxGeometry x="1" width="20" height="20" relative="1" as="geometry">
            <mxPoint x="-27" y="7" as="offset" />
          </mxGeometry>
        </mxCell>
        <mxCell id="joN3pdNG3yfQY1ER5gcC-49" value="«component»&lt;div&gt;«container (C4)»&lt;br&gt;&lt;b&gt;MongoDB&lt;/b&gt;&lt;/div&gt;" style="html=1;dropTarget=0;whiteSpace=wrap;" vertex="1" parent="1">
          <mxGeometry x="-451" y="590" width="130" height="65" as="geometry" />
        </mxCell>
        <mxCell id="joN3pdNG3yfQY1ER5gcC-50" value="" style="shape=module;jettyWidth=8;jettyHeight=4;" vertex="1" parent="joN3pdNG3yfQY1ER5gcC-49">
          <mxGeometry x="1" width="20" height="20" relative="1" as="geometry">
            <mxPoint x="-27" y="7" as="offset" />
          </mxGeometry>
        </mxCell>
        <mxCell id="joN3pdNG3yfQY1ER5gcC-51" value="" style="rounded=0;whiteSpace=wrap;html=1;" vertex="1" parent="1">
          <mxGeometry x="-396" y="500" width="20" height="20" as="geometry" />
        </mxCell>
        <mxCell id="joN3pdNG3yfQY1ER5gcC-52" value="" style="rounded=0;whiteSpace=wrap;html=1;" vertex="1" parent="1">
          <mxGeometry x="-396" y="580" width="20" height="20" as="geometry" />
        </mxCell>
        <mxCell id="joN3pdNG3yfQY1ER5gcC-53" value="" style="rounded=0;orthogonalLoop=1;jettySize=auto;html=1;endArrow=halfCircle;endFill=0;endSize=6;strokeWidth=1;sketch=0;exitX=0.5;exitY=1;exitDx=0;exitDy=0;" edge="1" parent="1" source="joN3pdNG3yfQY1ER5gcC-51">
          <mxGeometry relative="1" as="geometry">
            <mxPoint x="-310" y="350" as="sourcePoint" />
            <mxPoint x="-386" y="550" as="targetPoint" />
          </mxGeometry>
        </mxCell>
        <mxCell id="joN3pdNG3yfQY1ER5gcC-54" value="" style="rounded=0;orthogonalLoop=1;jettySize=auto;html=1;endArrow=oval;endFill=0;sketch=0;sourcePerimeterSpacing=0;targetPerimeterSpacing=0;endSize=10;exitX=0.5;exitY=0;exitDx=0;exitDy=0;" edge="1" parent="1" source="joN3pdNG3yfQY1ER5gcC-52">
          <mxGeometry relative="1" as="geometry">
            <mxPoint x="-190" y="350" as="sourcePoint" />
            <mxPoint x="-386" y="550" as="targetPoint" />
          </mxGeometry>
        </mxCell>
        <mxCell id="joN3pdNG3yfQY1ER5gcC-55" value="&lt;b&gt;Database API&lt;/b&gt;" style="edgeLabel;html=1;align=center;verticalAlign=middle;resizable=0;points=[];" vertex="1" connectable="0" parent="joN3pdNG3yfQY1ER5gcC-54">
          <mxGeometry x="0.7483" relative="1" as="geometry">
            <mxPoint x="-54" y="-4" as="offset" />
          </mxGeometry>
        </mxCell>
        <mxCell id="joN3pdNG3yfQY1ER5gcC-56" value="" style="rounded=0;orthogonalLoop=1;jettySize=auto;html=1;endArrow=oval;endFill=0;sketch=0;sourcePerimeterSpacing=0;targetPerimeterSpacing=0;endSize=10;exitX=0.5;exitY=0;exitDx=0;exitDy=0;entryX=0.291;entryY=0.254;entryDx=0;entryDy=0;entryPerimeter=0;" edge="1" parent="1" source="joN3pdNG3yfQY1ER5gcC-58" target="joN3pdNG3yfQY1ER5gcC-1">
          <mxGeometry relative="1" as="geometry">
            <mxPoint x="-241" y="454.8299999999999" as="sourcePoint" />
            <mxPoint x="-321" y="455" as="targetPoint" />
            <Array as="points">
              <mxPoint x="-391" y="380" />
            </Array>
          </mxGeometry>
        </mxCell>
        <mxCell id="joN3pdNG3yfQY1ER5gcC-57" value="&lt;b&gt;ExpressBackend&lt;/b&gt;&lt;div&gt;&lt;b&gt;API&lt;/b&gt;&lt;/div&gt;" style="edgeLabel;html=1;align=center;verticalAlign=middle;resizable=0;points=[];" vertex="1" connectable="0" parent="joN3pdNG3yfQY1ER5gcC-56">
          <mxGeometry x="0.7483" relative="1" as="geometry">
            <mxPoint x="-35" y="-20" as="offset" />
          </mxGeometry>
        </mxCell>
        <mxCell id="joN3pdNG3yfQY1ER5gcC-58" value="" style="rounded=0;whiteSpace=wrap;html=1;" vertex="1" parent="1">
          <mxGeometry x="-401" y="420" width="20" height="20" as="geometry" />
        </mxCell>
        <mxCell id="joN3pdNG3yfQY1ER5gcC-59" value="" style="rounded=0;orthogonalLoop=1;jettySize=auto;html=1;endArrow=halfCircle;endFill=0;endSize=6;strokeWidth=1;sketch=0;exitX=0.5;exitY=1;exitDx=0;exitDy=0;" edge="1" parent="1" source="joN3pdNG3yfQY1ER5gcC-51">
          <mxGeometry relative="1" as="geometry">
            <mxPoint x="-376" y="530" as="sourcePoint" />
            <mxPoint x="74" y="510" as="targetPoint" />
            <Array as="points">
              <mxPoint x="-386" y="530" />
              <mxPoint x="54" y="530" />
            </Array>
          </mxGeometry>
        </mxCell>
        <mxCell id="joN3pdNG3yfQY1ER5gcC-60" value="" style="rounded=0;orthogonalLoop=1;jettySize=auto;html=1;endArrow=halfCircle;endFill=0;endSize=6;strokeWidth=1;sketch=0;exitX=1;exitY=0.5;exitDx=0;exitDy=0;" edge="1" parent="1" source="joN3pdNG3yfQY1ER5gcC-38">
          <mxGeometry relative="1" as="geometry">
            <mxPoint x="34" y="390" as="sourcePoint" />
            <mxPoint x="-246" y="380" as="targetPoint" />
            <Array as="points">
              <mxPoint x="84" y="370" />
              <mxPoint x="84" y="410" />
              <mxPoint x="-226" y="410" />
            </Array>
          </mxGeometry>
        </mxCell>
        <mxCell id="joN3pdNG3yfQY1ER5gcC-61" value="" style="rounded=0;whiteSpace=wrap;html=1;" vertex="1" parent="1">
          <mxGeometry x="-156" y="445" width="20" height="20" as="geometry" />
        </mxCell>
        <mxCell id="joN3pdNG3yfQY1ER5gcC-62" value="" style="rounded=0;orthogonalLoop=1;jettySize=auto;html=1;endArrow=halfCircle;endFill=0;endSize=6;strokeWidth=1;sketch=0;exitX=0;exitY=0.5;exitDx=0;exitDy=0;" edge="1" parent="1" source="joN3pdNG3yfQY1ER5gcC-61">
          <mxGeometry relative="1" as="geometry">
            <mxPoint x="-226" y="445" as="sourcePoint" />
            <mxPoint x="-246" y="390" as="targetPoint" />
            <Array as="points">
              <mxPoint x="-246" y="455" />
            </Array>
          </mxGeometry>
        </mxCell>
        <mxCell id="joN3pdNG3yfQY1ER5gcC-63" value="&lt;b&gt;locale: DEI VS&lt;/b&gt;&lt;br&gt;&lt;div&gt;&lt;b&gt;&lt;br&gt;&lt;/b&gt;&lt;/div&gt;&lt;div&gt;&lt;b&gt;&lt;br&gt;&lt;/b&gt;&lt;/div&gt;&lt;div&gt;&lt;b&gt;&lt;br&gt;&lt;/b&gt;&lt;/div&gt;&lt;div&gt;&lt;b&gt;&lt;br&gt;&lt;/b&gt;&lt;/div&gt;&lt;div&gt;&lt;b&gt;&lt;br&gt;&lt;/b&gt;&lt;/div&gt;&lt;div&gt;&lt;b&gt;&lt;br&gt;&lt;/b&gt;&lt;/div&gt;&lt;div&gt;&lt;b&gt;&lt;br&gt;&lt;/b&gt;&lt;/div&gt;&lt;div&gt;&lt;br&gt;&lt;/div&gt;&lt;div&gt;&lt;br&gt;&lt;/div&gt;&lt;div&gt;&lt;br&gt;&lt;/div&gt;&lt;div&gt;&lt;br&gt;&lt;/div&gt;&lt;div&gt;&lt;br&gt;&lt;/div&gt;&lt;div&gt;&lt;br&gt;&lt;/div&gt;&lt;div&gt;&lt;br&gt;&lt;/div&gt;&lt;div&gt;&lt;br&gt;&lt;/div&gt;&lt;div&gt;&lt;br&gt;&lt;/div&gt;&lt;div&gt;&lt;br&gt;&lt;/div&gt;&lt;div&gt;&lt;br&gt;&lt;/div&gt;&lt;div&gt;&lt;br&gt;&lt;/div&gt;&lt;div&gt;&lt;br&gt;&lt;/div&gt;&lt;div&gt;&lt;br&gt;&lt;/div&gt;&lt;div&gt;&lt;br&gt;&lt;/div&gt;&lt;div&gt;&lt;br&gt;&lt;/div&gt;&lt;div&gt;&lt;br&gt;&lt;/div&gt;&lt;div&gt;&lt;br&gt;&lt;/div&gt;&lt;div&gt;&lt;br&gt;&lt;/div&gt;&lt;div&gt;&lt;br&gt;&lt;/div&gt;&lt;div&gt;&lt;br&gt;&lt;/div&gt;&lt;div&gt;&lt;br&gt;&lt;/div&gt;" style="shape=cube;whiteSpace=wrap;html=1;boundedLbl=1;backgroundOutline=1;darkOpacity=0.05;darkOpacity2=0.1;" vertex="1" parent="1">
          <mxGeometry x="510" y="305" width="1180" height="480" as="geometry" />
        </mxCell>
        <mxCell id="joN3pdNG3yfQY1ER5gcC-64" value="&lt;b&gt;localhost:??&lt;/b&gt;&lt;div&gt;&lt;b&gt;&lt;br&gt;&lt;/b&gt;&lt;/div&gt;&lt;div&gt;&lt;b&gt;&lt;br&gt;&lt;/b&gt;&lt;/div&gt;&lt;div&gt;&lt;b&gt;&lt;br&gt;&lt;/b&gt;&lt;/div&gt;&lt;div&gt;&lt;b&gt;&lt;br&gt;&lt;/b&gt;&lt;/div&gt;&lt;div&gt;&lt;b&gt;&lt;br&gt;&lt;/b&gt;&lt;/div&gt;&lt;div&gt;&lt;b&gt;&lt;br&gt;&lt;/b&gt;&lt;/div&gt;&lt;div&gt;&lt;b&gt;&lt;br&gt;&lt;/b&gt;&lt;/div&gt;&lt;div&gt;&lt;br&gt;&lt;/div&gt;" style="shape=cube;whiteSpace=wrap;html=1;boundedLbl=1;backgroundOutline=1;darkOpacity=0.05;darkOpacity2=0.1;" vertex="1" parent="1">
          <mxGeometry x="960" y="125" width="275" height="160" as="geometry" />
        </mxCell>
        <mxCell id="joN3pdNG3yfQY1ER5gcC-65" value="«component»&lt;br&gt;&lt;b&gt;Browser&lt;/b&gt;&lt;div&gt;&lt;b&gt;&lt;br&gt;&lt;/b&gt;&lt;/div&gt;&lt;div&gt;&lt;b&gt;&lt;br&gt;&lt;/b&gt;&lt;/div&gt;&lt;div&gt;&lt;b&gt;&lt;br&gt;&lt;/b&gt;&lt;/div&gt;" style="html=1;dropTarget=0;whiteSpace=wrap;" vertex="1" parent="1">
          <mxGeometry x="995" y="185" width="210" height="90" as="geometry" />
        </mxCell>
        <mxCell id="joN3pdNG3yfQY1ER5gcC-66" value="" style="shape=module;jettyWidth=8;jettyHeight=4;" vertex="1" parent="joN3pdNG3yfQY1ER5gcC-65">
          <mxGeometry x="1" width="20" height="20" relative="1" as="geometry">
            <mxPoint x="-27" y="7" as="offset" />
          </mxGeometry>
        </mxCell>
        <mxCell id="joN3pdNG3yfQY1ER5gcC-67" value="«component»&lt;br&gt;&lt;b&gt;HospitalApp&lt;/b&gt;" style="html=1;dropTarget=0;whiteSpace=wrap;" vertex="1" parent="1">
          <mxGeometry x="1030" y="225" width="145" height="40" as="geometry" />
        </mxCell>
        <mxCell id="joN3pdNG3yfQY1ER5gcC-68" value="" style="shape=module;jettyWidth=8;jettyHeight=4;" vertex="1" parent="joN3pdNG3yfQY1ER5gcC-67">
          <mxGeometry x="1" width="20" height="20" relative="1" as="geometry">
            <mxPoint x="-27" y="7" as="offset" />
          </mxGeometry>
        </mxCell>
        <mxCell id="joN3pdNG3yfQY1ER5gcC-69" value="&lt;b&gt;server2:??&lt;/b&gt;&lt;div&gt;&lt;b&gt;&lt;br&gt;&lt;/b&gt;&lt;/div&gt;&lt;div&gt;&lt;b&gt;&lt;br&gt;&lt;/b&gt;&lt;/div&gt;&lt;div&gt;&lt;b&gt;&lt;br&gt;&lt;/b&gt;&lt;/div&gt;&lt;div&gt;&lt;b&gt;&lt;br&gt;&lt;/b&gt;&lt;/div&gt;&lt;div&gt;&lt;b&gt;&lt;br&gt;&lt;/b&gt;&lt;/div&gt;&lt;div&gt;&lt;b&gt;&lt;br&gt;&lt;/b&gt;&lt;/div&gt;&lt;div&gt;&lt;b&gt;&lt;br&gt;&lt;/b&gt;&lt;/div&gt;&lt;div&gt;&lt;br&gt;&lt;/div&gt;&lt;div&gt;&lt;br&gt;&lt;/div&gt;&lt;div&gt;&lt;br&gt;&lt;/div&gt;&lt;div&gt;&lt;br&gt;&lt;/div&gt;" style="shape=cube;whiteSpace=wrap;html=1;boundedLbl=1;backgroundOutline=1;darkOpacity=0.05;darkOpacity2=0.1;" vertex="1" parent="1">
          <mxGeometry x="850" y="465" width="275" height="215" as="geometry" />
        </mxCell>
        <mxCell id="joN3pdNG3yfQY1ER5gcC-70" value="" style="endArrow=none;html=1;rounded=0;entryX=0.25;entryY=1;entryDx=0;entryDy=0;exitX=0.731;exitY=0.108;exitDx=0;exitDy=0;exitPerimeter=0;" edge="1" parent="1" source="joN3pdNG3yfQY1ER5gcC-77" target="joN3pdNG3yfQY1ER5gcC-65">
          <mxGeometry width="50" height="50" relative="1" as="geometry">
            <mxPoint x="1080.7300000000002" y="530.1800000000001" as="sourcePoint" />
            <mxPoint x="1080.0000000000002" y="275" as="targetPoint" />
          </mxGeometry>
        </mxCell>
        <mxCell id="joN3pdNG3yfQY1ER5gcC-71" value="http/s" style="edgeLabel;html=1;align=center;verticalAlign=middle;resizable=0;points=[];" vertex="1" connectable="0" parent="joN3pdNG3yfQY1ER5gcC-70">
          <mxGeometry x="-0.3891" y="-2" relative="1" as="geometry">
            <mxPoint y="-20" as="offset" />
          </mxGeometry>
        </mxCell>
        <mxCell id="joN3pdNG3yfQY1ER5gcC-72" value="&lt;b&gt;server1: VS 694&lt;/b&gt;&lt;div&gt;&lt;b&gt;&lt;br&gt;&lt;/b&gt;&lt;/div&gt;&lt;div&gt;&lt;b&gt;&lt;br&gt;&lt;/b&gt;&lt;/div&gt;&lt;div&gt;&lt;b&gt;&lt;br&gt;&lt;/b&gt;&lt;/div&gt;&lt;div&gt;&lt;b&gt;&lt;br&gt;&lt;/b&gt;&lt;/div&gt;&lt;div&gt;&lt;b&gt;&lt;br&gt;&lt;/b&gt;&lt;/div&gt;&lt;div&gt;&lt;br&gt;&lt;/div&gt;" style="shape=cube;whiteSpace=wrap;html=1;boundedLbl=1;backgroundOutline=1;darkOpacity=0.05;darkOpacity2=0.1;" vertex="1" parent="1">
          <mxGeometry x="1140" y="380" width="260" height="135" as="geometry" />
        </mxCell>
        <mxCell id="joN3pdNG3yfQY1ER5gcC-73" value="«component»&lt;br&gt;&lt;b&gt;Server&lt;/b&gt;" style="html=1;dropTarget=0;whiteSpace=wrap;" vertex="1" parent="1">
          <mxGeometry x="1180" y="435" width="210" height="70" as="geometry" />
        </mxCell>
        <mxCell id="joN3pdNG3yfQY1ER5gcC-74" value="" style="shape=module;jettyWidth=8;jettyHeight=4;" vertex="1" parent="joN3pdNG3yfQY1ER5gcC-73">
          <mxGeometry x="1" width="20" height="20" relative="1" as="geometry">
            <mxPoint x="-27" y="7" as="offset" />
          </mxGeometry>
        </mxCell>
        <mxCell id="joN3pdNG3yfQY1ER5gcC-75" value="" style="endArrow=none;html=1;rounded=0;entryX=0.865;entryY=0.097;entryDx=0;entryDy=0;entryPerimeter=0;exitX=0.25;exitY=0;exitDx=0;exitDy=0;" edge="1" parent="1" source="joN3pdNG3yfQY1ER5gcC-73" target="joN3pdNG3yfQY1ER5gcC-77">
          <mxGeometry width="50" height="50" relative="1" as="geometry">
            <mxPoint x="1190" y="380" as="sourcePoint" />
            <mxPoint x="1189.5" y="320" as="targetPoint" />
            <Array as="points">
              <mxPoint x="1233" y="425" />
              <mxPoint x="1079" y="425" />
            </Array>
          </mxGeometry>
        </mxCell>
        <mxCell id="joN3pdNG3yfQY1ER5gcC-76" value="http/s" style="edgeLabel;html=1;align=center;verticalAlign=middle;resizable=0;points=[];" vertex="1" connectable="0" parent="joN3pdNG3yfQY1ER5gcC-75">
          <mxGeometry x="-0.3891" y="-2" relative="1" as="geometry">
            <mxPoint y="-20" as="offset" />
          </mxGeometry>
        </mxCell>
        <mxCell id="joN3pdNG3yfQY1ER5gcC-77" value="" style="shape=folder;fontStyle=1;spacingTop=10;tabWidth=40;tabHeight=14;tabPosition=left;html=1;whiteSpace=wrap;" vertex="1" parent="1">
          <mxGeometry x="880" y="515" width="230" height="150" as="geometry" />
        </mxCell>
        <mxCell id="joN3pdNG3yfQY1ER5gcC-78" value="&lt;b&gt;server3: VS 1370&lt;/b&gt;&lt;div&gt;&lt;b&gt;&lt;br&gt;&lt;/b&gt;&lt;/div&gt;&lt;div&gt;&lt;b&gt;&lt;br&gt;&lt;/b&gt;&lt;/div&gt;&lt;div&gt;&lt;b&gt;&lt;br&gt;&lt;/b&gt;&lt;/div&gt;&lt;div&gt;&lt;b&gt;&lt;br&gt;&lt;/b&gt;&lt;/div&gt;&lt;div&gt;&lt;b&gt;&lt;br&gt;&lt;/b&gt;&lt;/div&gt;&lt;div&gt;&lt;br&gt;&lt;/div&gt;" style="shape=cube;whiteSpace=wrap;html=1;boundedLbl=1;backgroundOutline=1;darkOpacity=0.05;darkOpacity2=0.1;" vertex="1" parent="1">
          <mxGeometry x="1155" y="545" width="245" height="135" as="geometry" />
        </mxCell>
        <mxCell id="joN3pdNG3yfQY1ER5gcC-79" value="«component»&lt;br&gt;&lt;b&gt;SGBD&lt;/b&gt;" style="html=1;dropTarget=0;whiteSpace=wrap;" vertex="1" parent="1">
          <mxGeometry x="1210" y="605" width="145" height="50" as="geometry" />
        </mxCell>
        <mxCell id="joN3pdNG3yfQY1ER5gcC-80" value="" style="shape=module;jettyWidth=8;jettyHeight=4;" vertex="1" parent="joN3pdNG3yfQY1ER5gcC-79">
          <mxGeometry x="1" width="20" height="20" relative="1" as="geometry">
            <mxPoint x="-27" y="7" as="offset" />
          </mxGeometry>
        </mxCell>
        <mxCell id="joN3pdNG3yfQY1ER5gcC-81" value="" style="endArrow=none;html=1;rounded=0;entryX=0.929;entryY=1.017;entryDx=0;entryDy=0;entryPerimeter=0;" edge="1" parent="1">
          <mxGeometry width="50" height="50" relative="1" as="geometry">
            <mxPoint x="1235" y="605" as="sourcePoint" />
            <mxPoint x="1235" y="505" as="targetPoint" />
          </mxGeometry>
        </mxCell>
        <mxCell id="joN3pdNG3yfQY1ER5gcC-82" value="tcp" style="edgeLabel;html=1;align=center;verticalAlign=middle;resizable=0;points=[];" vertex="1" connectable="0" parent="joN3pdNG3yfQY1ER5gcC-81">
          <mxGeometry x="-0.3891" y="-2" relative="1" as="geometry">
            <mxPoint y="-20" as="offset" />
          </mxGeometry>
        </mxCell>
        <mxCell id="joN3pdNG3yfQY1ER5gcC-83" value="«component»&lt;br&gt;&lt;b&gt;HTTP Server&lt;/b&gt;" style="html=1;dropTarget=0;whiteSpace=wrap;" vertex="1" parent="1">
          <mxGeometry x="890" y="540" width="210" height="50" as="geometry" />
        </mxCell>
        <mxCell id="joN3pdNG3yfQY1ER5gcC-84" value="" style="shape=module;jettyWidth=8;jettyHeight=4;" vertex="1" parent="joN3pdNG3yfQY1ER5gcC-83">
          <mxGeometry x="1" width="20" height="20" relative="1" as="geometry">
            <mxPoint x="-27" y="7" as="offset" />
          </mxGeometry>
        </mxCell>
        <mxCell id="joN3pdNG3yfQY1ER5gcC-85" value="HospitalApp" style="shape=folder;fontStyle=1;spacingTop=10;tabWidth=40;tabHeight=14;tabPosition=left;html=1;whiteSpace=wrap;" vertex="1" parent="1">
          <mxGeometry x="930" y="605" width="140" height="50" as="geometry" />
        </mxCell>
        <mxCell id="joN3pdNG3yfQY1ER5gcC-86" value="&lt;b&gt;server4: VST 47&lt;/b&gt;&lt;div&gt;&lt;b&gt;&lt;br&gt;&lt;/b&gt;&lt;/div&gt;&lt;div&gt;&lt;b&gt;&lt;br&gt;&lt;/b&gt;&lt;/div&gt;&lt;div&gt;&lt;b&gt;&lt;br&gt;&lt;/b&gt;&lt;/div&gt;&lt;div&gt;&lt;b&gt;&lt;br&gt;&lt;/b&gt;&lt;/div&gt;&lt;div&gt;&lt;b&gt;&lt;br&gt;&lt;/b&gt;&lt;/div&gt;&lt;div&gt;&lt;b&gt;&lt;br&gt;&lt;/b&gt;&lt;/div&gt;&lt;div&gt;&lt;b&gt;&lt;br&gt;&lt;/b&gt;&lt;/div&gt;&lt;div&gt;&lt;br&gt;&lt;/div&gt;&lt;div&gt;&lt;br&gt;&lt;/div&gt;&lt;div&gt;&lt;br&gt;&lt;/div&gt;&lt;div&gt;&lt;br&gt;&lt;/div&gt;" style="shape=cube;whiteSpace=wrap;html=1;boundedLbl=1;backgroundOutline=1;darkOpacity=0.05;darkOpacity2=0.1;" vertex="1" parent="1">
          <mxGeometry x="550" y="465" width="275" height="215" as="geometry" />
        </mxCell>
        <mxCell id="joN3pdNG3yfQY1ER5gcC-87" value="«component»&lt;br&gt;&lt;b&gt;BCP&lt;/b&gt;" style="html=1;dropTarget=0;whiteSpace=wrap;" vertex="1" parent="1">
          <mxGeometry x="610" y="615" width="145" height="50" as="geometry" />
        </mxCell>
        <mxCell id="joN3pdNG3yfQY1ER5gcC-88" value="" style="shape=module;jettyWidth=8;jettyHeight=4;" vertex="1" parent="joN3pdNG3yfQY1ER5gcC-87">
          <mxGeometry x="1" width="20" height="20" relative="1" as="geometry">
            <mxPoint x="-27" y="7" as="offset" />
          </mxGeometry>
        </mxCell>
        <mxCell id="joN3pdNG3yfQY1ER5gcC-89" value="«component»&lt;br&gt;&lt;b&gt;Planeamento&lt;/b&gt;" style="html=1;dropTarget=0;whiteSpace=wrap;" vertex="1" parent="1">
          <mxGeometry x="580" y="547.5" width="110" height="50" as="geometry" />
        </mxCell>
        <mxCell id="joN3pdNG3yfQY1ER5gcC-90" value="" style="shape=module;jettyWidth=8;jettyHeight=4;" vertex="1" parent="joN3pdNG3yfQY1ER5gcC-89">
          <mxGeometry x="1" width="20" height="20" relative="1" as="geometry">
            <mxPoint x="-27" y="7" as="offset" />
          </mxGeometry>
        </mxCell>
        <mxCell id="joN3pdNG3yfQY1ER5gcC-91" value="" style="endArrow=none;html=1;rounded=0;exitX=0.5;exitY=0;exitDx=0;exitDy=0;entryX=0;entryY=0;entryDx=135;entryDy=14;entryPerimeter=0;" edge="1" parent="1" source="joN3pdNG3yfQY1ER5gcC-89" target="joN3pdNG3yfQY1ER5gcC-77">
          <mxGeometry width="50" height="50" relative="1" as="geometry">
            <mxPoint x="1050.7300000000002" y="520.1800000000001" as="sourcePoint" />
            <mxPoint x="1050" y="525" as="targetPoint" />
            <Array as="points">
              <mxPoint x="635" y="445" />
              <mxPoint x="1015" y="445" />
            </Array>
          </mxGeometry>
        </mxCell>
        <mxCell id="joN3pdNG3yfQY1ER5gcC-92" value="http/s" style="edgeLabel;html=1;align=center;verticalAlign=middle;resizable=0;points=[];" vertex="1" connectable="0" parent="joN3pdNG3yfQY1ER5gcC-91">
          <mxGeometry x="-0.3891" y="-2" relative="1" as="geometry">
            <mxPoint y="-20" as="offset" />
          </mxGeometry>
        </mxCell>
        <mxCell id="joN3pdNG3yfQY1ER5gcC-93" value="&lt;b&gt;server1: VS 694&lt;/b&gt;&lt;div&gt;&lt;b&gt;&lt;br&gt;&lt;/b&gt;&lt;/div&gt;&lt;div&gt;&lt;b&gt;&lt;br&gt;&lt;/b&gt;&lt;/div&gt;&lt;div&gt;&lt;b&gt;&lt;br&gt;&lt;/b&gt;&lt;/div&gt;&lt;div&gt;&lt;b&gt;&lt;br&gt;&lt;/b&gt;&lt;/div&gt;&lt;div&gt;&lt;b&gt;&lt;br&gt;&lt;/b&gt;&lt;/div&gt;&lt;div&gt;&lt;br&gt;&lt;/div&gt;" style="shape=cube;whiteSpace=wrap;html=1;boundedLbl=1;backgroundOutline=1;darkOpacity=0.05;darkOpacity2=0.1;" vertex="1" parent="1">
          <mxGeometry x="1410" y="380" width="260" height="135" as="geometry" />
        </mxCell>
        <mxCell id="joN3pdNG3yfQY1ER5gcC-94" value="«component»&lt;br&gt;&lt;b&gt;Express Server&lt;/b&gt;" style="html=1;dropTarget=0;whiteSpace=wrap;" vertex="1" parent="1">
          <mxGeometry x="1450" y="435" width="210" height="70" as="geometry" />
        </mxCell>
        <mxCell id="joN3pdNG3yfQY1ER5gcC-95" value="" style="shape=module;jettyWidth=8;jettyHeight=4;" vertex="1" parent="joN3pdNG3yfQY1ER5gcC-94">
          <mxGeometry x="1" width="20" height="20" relative="1" as="geometry">
            <mxPoint x="-27" y="7" as="offset" />
          </mxGeometry>
        </mxCell>
        <mxCell id="joN3pdNG3yfQY1ER5gcC-96" value="&lt;b&gt;cloud.mongodb:??&lt;/b&gt;&lt;br&gt;&lt;div&gt;&lt;b&gt;&lt;br&gt;&lt;/b&gt;&lt;/div&gt;&lt;div&gt;&lt;b&gt;&lt;br&gt;&lt;/b&gt;&lt;/div&gt;&lt;div&gt;&lt;b&gt;&lt;br&gt;&lt;/b&gt;&lt;/div&gt;&lt;div&gt;&lt;b&gt;&lt;br&gt;&lt;/b&gt;&lt;/div&gt;&lt;div&gt;&lt;b&gt;&lt;br&gt;&lt;/b&gt;&lt;/div&gt;&lt;div&gt;&lt;br&gt;&lt;/div&gt;" style="shape=cube;whiteSpace=wrap;html=1;boundedLbl=1;backgroundOutline=1;darkOpacity=0.05;darkOpacity2=0.1;" vertex="1" parent="1">
          <mxGeometry x="1710" y="380" width="245" height="135" as="geometry" />
        </mxCell>
        <mxCell id="joN3pdNG3yfQY1ER5gcC-97" value="«component»&lt;br&gt;&lt;b&gt;MongoDB&lt;/b&gt;" style="html=1;dropTarget=0;whiteSpace=wrap;" vertex="1" parent="1">
          <mxGeometry x="1765" y="440" width="145" height="50" as="geometry" />
        </mxCell>
        <mxCell id="joN3pdNG3yfQY1ER5gcC-98" value="" style="shape=module;jettyWidth=8;jettyHeight=4;" vertex="1" parent="joN3pdNG3yfQY1ER5gcC-97">
          <mxGeometry x="1" width="20" height="20" relative="1" as="geometry">
            <mxPoint x="-27" y="7" as="offset" />
          </mxGeometry>
        </mxCell>
        <mxCell id="joN3pdNG3yfQY1ER5gcC-99" value="" style="endArrow=none;html=1;rounded=0;entryX=1;entryY=0.5;entryDx=0;entryDy=0;exitX=0;exitY=0.5;exitDx=0;exitDy=0;" edge="1" parent="1" source="joN3pdNG3yfQY1ER5gcC-97" target="joN3pdNG3yfQY1ER5gcC-94">
          <mxGeometry width="50" height="50" relative="1" as="geometry">
            <mxPoint x="1490" y="605" as="sourcePoint" />
            <mxPoint x="1490" y="505" as="targetPoint" />
          </mxGeometry>
        </mxCell>
        <mxCell id="joN3pdNG3yfQY1ER5gcC-100" value="tcp" style="edgeLabel;html=1;align=center;verticalAlign=middle;resizable=0;points=[];" vertex="1" connectable="0" parent="joN3pdNG3yfQY1ER5gcC-99">
          <mxGeometry x="-0.3891" y="-2" relative="1" as="geometry">
            <mxPoint x="-13" y="10" as="offset" />
          </mxGeometry>
        </mxCell>
        <mxCell id="joN3pdNG3yfQY1ER5gcC-101" value="" style="endArrow=none;html=1;rounded=0;exitX=0.25;exitY=0;exitDx=0;exitDy=0;" edge="1" parent="1">
          <mxGeometry width="50" height="50" relative="1" as="geometry">
            <mxPoint x="1504" y="435" as="sourcePoint" />
            <mxPoint x="1350" y="435" as="targetPoint" />
            <Array as="points">
              <mxPoint x="1504" y="425" />
              <mxPoint x="1350" y="425" />
            </Array>
          </mxGeometry>
        </mxCell>
        <mxCell id="joN3pdNG3yfQY1ER5gcC-102" value="http/s" style="edgeLabel;html=1;align=center;verticalAlign=middle;resizable=0;points=[];" vertex="1" connectable="0" parent="joN3pdNG3yfQY1ER5gcC-101">
          <mxGeometry x="-0.3891" y="-2" relative="1" as="geometry">
            <mxPoint y="-20" as="offset" />
          </mxGeometry>
        </mxCell>
        <mxCell id="joN3pdNG3yfQY1ER5gcC-103" value="" style="endArrow=none;html=1;rounded=0;entryX=0.938;entryY=0.084;entryDx=0;entryDy=0;entryPerimeter=0;" edge="1" parent="1" target="joN3pdNG3yfQY1ER5gcC-77">
          <mxGeometry width="50" height="50" relative="1" as="geometry">
            <mxPoint x="1620" y="435" as="sourcePoint" />
            <mxPoint x="1470.5" y="530" as="targetPoint" />
            <Array as="points">
              <mxPoint x="1620" y="425" />
              <mxPoint x="1620" y="365" />
              <mxPoint x="1096" y="365" />
            </Array>
          </mxGeometry>
        </mxCell>
        <mxCell id="joN3pdNG3yfQY1ER5gcC-104" value="http/s" style="edgeLabel;html=1;align=center;verticalAlign=middle;resizable=0;points=[];" vertex="1" connectable="0" parent="joN3pdNG3yfQY1ER5gcC-103">
          <mxGeometry x="-0.3891" y="-2" relative="1" as="geometry">
            <mxPoint y="-20" as="offset" />
          </mxGeometry>
        </mxCell>
        <mxCell id="joN3pdNG3yfQY1ER5gcC-105" value="«component»&lt;br&gt;&lt;b&gt;IAM&lt;/b&gt;" style="html=1;dropTarget=0;whiteSpace=wrap;" vertex="1" parent="1">
          <mxGeometry x="700" y="547.5" width="110" height="50" as="geometry" />
        </mxCell>
        <mxCell id="joN3pdNG3yfQY1ER5gcC-106" value="" style="shape=module;jettyWidth=8;jettyHeight=4;" vertex="1" parent="joN3pdNG3yfQY1ER5gcC-105">
          <mxGeometry x="1" width="20" height="20" relative="1" as="geometry">
            <mxPoint x="-27" y="7" as="offset" />
          </mxGeometry>
        </mxCell>
        <mxCell id="joN3pdNG3yfQY1ER5gcC-107" value="" style="endArrow=none;html=1;rounded=0;entryX=0.929;entryY=1.017;entryDx=0;entryDy=0;entryPerimeter=0;exitX=0.25;exitY=1;exitDx=0;exitDy=0;" edge="1" parent="1" source="joN3pdNG3yfQY1ER5gcC-79">
          <mxGeometry width="50" height="50" relative="1" as="geometry">
            <mxPoint x="790" y="697.5" as="sourcePoint" />
            <mxPoint x="790" y="597.5" as="targetPoint" />
            <Array as="points">
              <mxPoint x="1246" y="705" />
              <mxPoint x="790" y="705" />
            </Array>
          </mxGeometry>
        </mxCell>
        <mxCell id="joN3pdNG3yfQY1ER5gcC-108" value="tcp" style="edgeLabel;html=1;align=center;verticalAlign=middle;resizable=0;points=[];" vertex="1" connectable="0" parent="joN3pdNG3yfQY1ER5gcC-107">
          <mxGeometry x="-0.3891" y="-2" relative="1" as="geometry">
            <mxPoint x="46" y="12" as="offset" />
          </mxGeometry>
        </mxCell>
        <mxCell id="joN3pdNG3yfQY1ER5gcC-109" value="" style="endArrow=none;html=1;rounded=0;exitX=0.5;exitY=0;exitDx=0;exitDy=0;entryX=0.302;entryY=0.095;entryDx=0;entryDy=0;entryPerimeter=0;" edge="1" parent="1" target="joN3pdNG3yfQY1ER5gcC-77">
          <mxGeometry width="50" height="50" relative="1" as="geometry">
            <mxPoint x="760" y="547.5" as="sourcePoint" />
            <mxPoint x="1140" y="528.5" as="targetPoint" />
            <Array as="points">
              <mxPoint x="760" y="455" />
              <mxPoint x="950" y="455" />
            </Array>
          </mxGeometry>
        </mxCell>
        <mxCell id="joN3pdNG3yfQY1ER5gcC-110" value="http/s" style="edgeLabel;html=1;align=center;verticalAlign=middle;resizable=0;points=[];" vertex="1" connectable="0" parent="joN3pdNG3yfQY1ER5gcC-109">
          <mxGeometry x="-0.3891" y="-2" relative="1" as="geometry">
            <mxPoint y="-20" as="offset" />
          </mxGeometry>
        </mxCell>
        <mxCell id="joN3pdNG3yfQY1ER5gcC-111" value="" style="endArrow=none;html=1;rounded=0;exitX=0.711;exitY=1.016;exitDx=0;exitDy=0;entryX=0.948;entryY=1.015;entryDx=0;entryDy=0;entryPerimeter=0;exitPerimeter=0;" edge="1" parent="1" source="joN3pdNG3yfQY1ER5gcC-105" target="joN3pdNG3yfQY1ER5gcC-73">
          <mxGeometry width="50" height="50" relative="1" as="geometry">
            <mxPoint x="770" y="557.5" as="sourcePoint" />
            <mxPoint x="959" y="539" as="targetPoint" />
            <Array as="points">
              <mxPoint x="780" y="735" />
              <mxPoint x="1380" y="735" />
            </Array>
          </mxGeometry>
        </mxCell>
        <mxCell id="joN3pdNG3yfQY1ER5gcC-112" value="http/s" style="edgeLabel;html=1;align=center;verticalAlign=middle;resizable=0;points=[];" vertex="1" connectable="0" parent="joN3pdNG3yfQY1ER5gcC-111">
          <mxGeometry x="-0.3891" y="-2" relative="1" as="geometry">
            <mxPoint x="463" y="-32" as="offset" />
          </mxGeometry>
        </mxCell>
        <mxCell id="joN3pdNG3yfQY1ER5gcC-113" value="" style="endArrow=none;html=1;rounded=0;exitX=0.718;exitY=1.021;exitDx=0;exitDy=0;entryX=0.5;entryY=1;entryDx=0;entryDy=0;exitPerimeter=0;" edge="1" parent="1" source="joN3pdNG3yfQY1ER5gcC-105" target="joN3pdNG3yfQY1ER5gcC-94">
          <mxGeometry width="50" height="50" relative="1" as="geometry">
            <mxPoint x="783" y="597" as="sourcePoint" />
            <mxPoint x="1379" y="505" as="targetPoint" />
            <Array as="points">
              <mxPoint x="780" y="734" />
              <mxPoint x="1550" y="735" />
            </Array>
          </mxGeometry>
        </mxCell>
        <mxCell id="joN3pdNG3yfQY1ER5gcC-114" value="http/s" style="edgeLabel;html=1;align=center;verticalAlign=middle;resizable=0;points=[];" vertex="1" connectable="0" parent="joN3pdNG3yfQY1ER5gcC-113">
          <mxGeometry x="-0.3891" y="-2" relative="1" as="geometry">
            <mxPoint x="587" y="-41" as="offset" />
          </mxGeometry>
        </mxCell>
        <mxCell id="joN3pdNG3yfQY1ER5gcC-115" value="«manifest»" style="endArrow=open;endSize=12;dashed=1;html=1;rounded=0;exitX=1;exitY=0.5;exitDx=0;exitDy=0;entryX=0;entryY=0.5;entryDx=0;entryDy=0;" edge="1" parent="1" source="joN3pdNG3yfQY1ER5gcC-33" target="joN3pdNG3yfQY1ER5gcC-87">
          <mxGeometry x="0.0233" y="11" width="160" relative="1" as="geometry">
            <mxPoint x="300" y="530" as="sourcePoint" />
            <mxPoint x="460" y="530" as="targetPoint" />
            <mxPoint as="offset" />
          </mxGeometry>
        </mxCell>
        <mxCell id="joN3pdNG3yfQY1ER5gcC-116" value="«manifest»" style="endArrow=open;endSize=12;dashed=1;html=1;rounded=0;exitX=1;exitY=0.5;exitDx=0;exitDy=0;entryX=0;entryY=0.5;entryDx=0;entryDy=0;" edge="1" parent="1" source="joN3pdNG3yfQY1ER5gcC-9">
          <mxGeometry x="0.0233" y="11" width="160" relative="1" as="geometry">
            <mxPoint x="314" y="574" as="sourcePoint" />
            <mxPoint x="580" y="571" as="targetPoint" />
            <mxPoint as="offset" />
            <Array as="points">
              <mxPoint x="450" y="365" />
              <mxPoint x="450" y="571" />
            </Array>
          </mxGeometry>
        </mxCell>
        <mxCell id="joN3pdNG3yfQY1ER5gcC-118" value="«manifest»" style="endArrow=open;endSize=12;dashed=1;html=1;rounded=0;exitX=0.75;exitY=0;exitDx=0;exitDy=0;entryX=0;entryY=0.5;entryDx=0;entryDy=0;" edge="1" parent="1" source="joN3pdNG3yfQY1ER5gcC-11" target="joN3pdNG3yfQY1ER5gcC-65">
          <mxGeometry x="0.8714" y="20" width="160" relative="1" as="geometry">
            <mxPoint x="70" y="180" as="sourcePoint" />
            <mxPoint x="336" y="178" as="targetPoint" />
            <mxPoint as="offset" />
            <Array as="points">
              <mxPoint x="-21" y="190" />
              <mxPoint x="890" y="190" />
              <mxPoint x="890" y="230" />
            </Array>
          </mxGeometry>
        </mxCell>
        <mxCell id="joN3pdNG3yfQY1ER5gcC-119" value="«manifest»" style="endArrow=open;endSize=12;dashed=1;html=1;rounded=0;exitX=0.75;exitY=0;exitDx=0;exitDy=0;entryX=0.038;entryY=-0.012;entryDx=0;entryDy=0;entryPerimeter=0;" edge="1" parent="1" target="joN3pdNG3yfQY1ER5gcC-77">
          <mxGeometry x="0.8318" y="-29" width="160" relative="1" as="geometry">
            <mxPoint x="-21" y="300" as="sourcePoint" />
            <mxPoint x="995" y="230" as="targetPoint" />
            <mxPoint as="offset" />
            <Array as="points">
              <mxPoint x="-21" y="190" />
              <mxPoint x="890" y="190" />
              <mxPoint x="890" y="230" />
            </Array>
          </mxGeometry>
        </mxCell>
        <mxCell id="joN3pdNG3yfQY1ER5gcC-120" value="" style="endArrow=open;endSize=12;dashed=1;html=1;rounded=0;exitX=1;exitY=0.75;exitDx=0;exitDy=0;entryX=0.043;entryY=-0.005;entryDx=0;entryDy=0;entryPerimeter=0;" edge="1" parent="1" source="joN3pdNG3yfQY1ER5gcC-24" target="joN3pdNG3yfQY1ER5gcC-77">
          <mxGeometry x="0.8318" y="-29" width="160" relative="1" as="geometry">
            <mxPoint x="4" y="880" as="sourcePoint" />
            <mxPoint x="890" y="510" as="targetPoint" />
            <mxPoint as="offset" />
            <Array as="points">
              <mxPoint x="140" y="774" />
              <mxPoint x="140" y="190" />
              <mxPoint x="890" y="190" />
              <mxPoint x="890" y="310" />
            </Array>
          </mxGeometry>
        </mxCell>
        <mxCell id="joN3pdNG3yfQY1ER5gcC-122" value="«manifest»" style="endArrow=open;endSize=12;dashed=1;html=1;rounded=0;exitX=0;exitY=0.75;exitDx=0;exitDy=0;entryX=0.872;entryY=0.996;entryDx=0;entryDy=0;entryPerimeter=0;" edge="1" parent="1" source="joN3pdNG3yfQY1ER5gcC-35" target="joN3pdNG3yfQY1ER5gcC-73">
          <mxGeometry x="0.8812" y="20" width="160" relative="1" as="geometry">
            <mxPoint x="-101" y="660" as="sourcePoint" />
            <mxPoint x="809" y="873" as="targetPoint" />
            <mxPoint as="offset" />
            <Array as="points">
              <mxPoint x="-200" y="490" />
              <mxPoint x="-200" y="970" />
              <mxPoint x="1450" y="970" />
              <mxPoint x="1450" y="530" />
              <mxPoint x="1363" y="530" />
            </Array>
          </mxGeometry>
        </mxCell>
        <mxCell id="joN3pdNG3yfQY1ER5gcC-123" value="«manifest»" style="endArrow=open;endSize=12;dashed=1;html=1;rounded=0;exitX=1;exitY=0.75;exitDx=0;exitDy=0;entryX=1;entryY=0.75;entryDx=0;entryDy=0;" edge="1" parent="1" source="joN3pdNG3yfQY1ER5gcC-40" target="joN3pdNG3yfQY1ER5gcC-79">
          <mxGeometry x="0.8318" y="-29" width="160" relative="1" as="geometry">
            <mxPoint x="-141" y="500" as="sourcePoint" />
            <mxPoint x="1373" y="515" as="targetPoint" />
            <mxPoint as="offset" />
            <Array as="points">
              <mxPoint x="70" y="639" />
              <mxPoint x="70" y="990" />
              <mxPoint x="1490" y="990" />
              <mxPoint x="1490" y="643" />
            </Array>
          </mxGeometry>
        </mxCell>
        <mxCell id="joN3pdNG3yfQY1ER5gcC-124" value="«manifest»" style="endArrow=open;endSize=12;dashed=1;html=1;rounded=0;exitX=0.75;exitY=0;exitDx=0;exitDy=0;entryX=0.5;entryY=0;entryDx=0;entryDy=0;" edge="1" parent="1" target="joN3pdNG3yfQY1ER5gcC-94">
          <mxGeometry x="0.8318" y="-29" width="160" relative="1" as="geometry">
            <mxPoint x="-431.5" y="430" as="sourcePoint" />
            <mxPoint x="478.5" y="643" as="targetPoint" />
            <mxPoint as="offset" />
            <Array as="points">
              <mxPoint x="-431" y="50" />
              <mxPoint x="1560" y="50" />
            </Array>
          </mxGeometry>
        </mxCell>
        <mxCell id="joN3pdNG3yfQY1ER5gcC-125" value="«manifest»" style="endArrow=open;endSize=12;dashed=1;html=1;rounded=0;exitX=0.405;exitY=1;exitDx=0;exitDy=0;entryX=0.5;entryY=1;entryDx=0;entryDy=0;exitPerimeter=0;" edge="1" parent="1" source="joN3pdNG3yfQY1ER5gcC-49" target="joN3pdNG3yfQY1ER5gcC-97">
          <mxGeometry x="0.8812" y="20" width="160" relative="1" as="geometry">
            <mxPoint x="-347" y="665" as="sourcePoint" />
            <mxPoint x="1167" y="680" as="targetPoint" />
            <mxPoint as="offset" />
            <Array as="points">
              <mxPoint x="-396" y="665" />
              <mxPoint x="-396" y="1145" />
              <mxPoint x="1254" y="1145" />
              <mxPoint x="1840" y="1145" />
              <mxPoint x="1840" y="720" />
            </Array>
          </mxGeometry>
        </mxCell>
      </root>
    </mxGraphModel>
  </diagram>
</mxfile>
